<?xml version="1.0" standalone="no"?>
<!DOCTYPE svg PUBLIC "-//W3C//DTD SVG 20010904//EN"
 "http://www.w3.org/TR/2001/REC-SVG-20010904/DTD/svg10.dtd">
<svg version="1.0" xmlns="http://www.w3.org/2000/svg"
 width="700.000000pt" height="700.000000pt" viewBox="0 0 700.000000 700.000000"
 preserveAspectRatio="xMidYMid meet">
<metadata>
Created by potrace 1.14, written by Peter Selinger 2001-2017
</metadata>
<g transform="translate(0.000000,700.000000) scale(0.100000,-0.100000)"
fill="#000000" stroke="none">
<path d="M3258 6989 c-271 -28 -506 -111 -677 -239 -259 -195 -396 -478 -465
-961 -20 -138 -29 -589 -14 -719 36 -307 133 -593 281 -824 57 -88 54 -85 124
-171 208 -254 521 -442 798 -481 17 -2 41 -6 55 -9 67 -15 253 -7 369 15 163
31 336 107 486 215 207 148 379 358 500 610 48 98 115 280 129 345 3 14 12 54
19 90 8 36 18 85 21 110 4 25 10 68 13 95 15 104 5 656 -12 708 -2 7 -6 35 -9
63 -3 28 -14 97 -26 154 -59 290 -166 508 -329 670 -177 175 -399 275 -711
321 -92 14 -447 19 -552 8z"/>
<path d="M2565 3414 c-60 -13 -121 -25 -135 -28 -14 -2 -72 -16 -130 -31 -260
-66 -440 -126 -590 -198 -47 -22 -88 -41 -92 -41 -4 -1 -58 -34 -120 -75 -236
-154 -393 -355 -491 -628 -23 -62 -34 -100 -64 -218 -7 -25 -41 -219 -47 -265
-3 -19 -8 -57 -11 -85 -3 -27 -7 -68 -10 -90 -5 -47 -14 -169 -20 -275 -6
-103 -18 -529 -17 -619 1 -62 5 -79 27 -111 63 -91 261 -255 375 -311 25 -12
52 -27 60 -34 18 -14 220 -103 300 -133 108 -39 247 -81 365 -111 126 -31 213
-49 345 -71 107 -18 196 -31 240 -36 25 -2 65 -7 90 -9 105 -13 220 -22 385
-32 253 -15 1020 -7 1136 12 13 2 58 6 99 9 41 4 89 8 105 10 17 2 57 7 90 11
32 4 66 8 75 10 8 1 38 6 65 9 28 4 61 8 75 11 14 3 36 7 50 9 622 112 1088
311 1340 570 83 85 105 124 103 176 -1 25 -4 164 -8 310 -3 146 -8 290 -10
320 -2 30 -7 101 -10 157 -4 56 -8 112 -9 125 -2 13 -6 52 -10 88 -21 193 -72
432 -121 568 -39 107 -129 290 -155 312 -3 3 -14 18 -23 33 -36 56 -162 179
-251 245 -222 162 -554 291 -998 388 -40 9 -100 22 -134 29 -33 7 -84 16 -112
20 -53 6 -53 6 -108 -44 -125 -114 -317 -198 -523 -229 -63 -9 -314 -9 -380 1
-207 29 -384 107 -529 231 -62 53 -61 53 -217 20z"/>
</g>
</svg>
